<?xml version="1.0" encoding="UTF-8"?>
<svg version="1.1" xmlns="http://www.w3.org/2000/svg" width="512" height="512">
<path d="M0 0 C2.53895389 1.17934599 2.93851119 2.18881404 4.02441406 4.74389648 C4.55252686 5.95384277 4.55252686 5.95384277 5.09130859 7.18823242 C5.45595215 8.06382812 5.8205957 8.93942383 6.19628906 9.84155273 C6.5854248 10.74164063 6.97456055 11.64172852 7.37548828 12.5690918 C8.18228605 14.43536396 8.98350262 16.30405819 9.77929688 18.17504883 C11.49593312 22.18939192 13.28552556 26.17012336 15.07128906 30.15405273 C16.94092493 34.35173385 18.80096538 38.55278097 20.61425781 42.77514648 C31.50493527 70.41832254 31.50493527 70.41832254 49.00878906 93.84155273 C51.91640806 96.58283197 51.91640806 96.58283197 52.19628906 99.59155273 C50.5844685 102.57342077 48.65206489 103.84531026 45.94628906 105.90405273 C44.88040451 107.06986396 43.84119805 108.26031422 42.82128906 109.46655273 C37.27975946 115.94177551 31.23652831 122.3774722 24.57128906 127.71655273 C21.61135849 130.18316154 19.37281196 132.91756302 16.94628906 135.90405273 C15.29165562 137.58266637 13.62213826 139.24661947 11.94628906 140.90405273 C10.68616468 142.17388479 9.42713513 143.44480383 8.16894531 144.71655273 C6.7822785 146.11243766 5.39555859 147.50826985 4.00878906 148.90405273 C3.31849609 149.60272461 2.62820313 150.30139648 1.91699219 151.02124023 C-1.10539319 154.05794972 -4.11434355 157.02904474 -7.42871094 159.74780273 C-10.08697616 161.93137773 -11.95292976 164.19336735 -14.05371094 166.90405273 C-15.20088752 168.06809956 -16.35040412 169.22995382 -17.51293945 170.37866211 C-19.29800218 172.14590533 -21.06443458 173.93087547 -22.83105469 175.71655273 C-24.2177215 177.11243766 -25.60444141 178.50826985 -26.99121094 179.90405273 C-27.68150391 180.60272461 -28.37179687 181.30139648 -29.08300781 182.02124023 C-31.05474859 184.00232576 -33.04426549 185.96126155 -35.05371094 187.90405273 C-35.61461426 188.44803711 -36.17551758 188.99202148 -36.75341797 189.55249023 C-40.4346935 192.901838 -40.4346935 192.901838 -43.23730469 192.91186523 C-45.31139695 191.76107856 -46.55258059 190.56263108 -48.11621094 188.77905273 C-55.71007041 180.83439858 -65.84104054 176.36613848 -75.74121094 171.96655273 C-78.04557043 170.9257379 -80.34896007 169.88277311 -82.65136719 168.83764648 C-83.75367676 168.3373291 -84.85598633 167.83701172 -85.99169922 167.3215332 C-89.94255647 165.4925843 -93.81354616 163.53098204 -97.67871094 161.52905273 C-103.23812376 158.67431615 -108.85727661 156.37592247 -114.73974609 154.27514648 C-123.73365785 151.01991213 -132.37664522 146.91317847 -141.05371094 142.90405273 C-140.63125963 137.97545411 -138.65679839 136.15830016 -135.05371094 132.90405273 C-133.77881734 131.71681233 -132.50550509 130.52787256 -131.23339844 129.33764648 C-130.19070801 128.37048706 -130.19070801 128.37048706 -129.12695312 127.38378906 C-122.23513549 120.9810731 -115.59821496 114.48839086 -109.35058594 107.45483398 C-105.26726174 102.92012191 -100.85932434 98.77462421 -96.38110352 94.63793945 C-90.28233891 88.99717351 -84.37414553 83.35140043 -78.94824219 77.05249023 C-74.30295062 71.78463382 -69.09210503 67.03692103 -63.99121094 62.21655273 C-63.28416016 61.54043945 -62.57710938 60.86432617 -61.84863281 60.16772461 C-61.16220703 59.5199707 -60.47578125 58.8722168 -59.76855469 58.20483398 C-58.84224243 57.32565308 -58.84224243 57.32565308 -57.8972168 56.42871094 C-56.03709595 54.89031143 -54.20549982 53.970332 -52.05371094 52.90405273 C-51.00349991 51.05433577 -51.00349991 51.05433577 -50.05371094 48.90405273 C-47.33350788 45.24584863 -44.31133231 42.08591547 -41.05371094 38.90405273 C-40.52777344 38.36780273 -40.00183594 37.83155273 -39.45996094 37.27905273 C-36.42510145 34.18901398 -33.33383025 31.23371079 -30.05371094 28.40405273 C-24.38242363 23.49915561 -19.27850241 18.25803785 -14.45214844 12.52514648 C-12.43932325 10.19184354 -10.25928158 8.05448412 -8.05371094 5.90405273 C-7.55742187 5.35104492 -7.06113281 4.79803711 -6.54980469 4.22827148 C-2.56168435 -0.11967926 -2.56168435 -0.11967926 0 0 Z " fill="#000000" transform="translate(371.0537109375,230.095947265625)"/>
<path d="M0 0 C1.04800781 0.62390625 2.09601563 1.2478125 3.17578125 1.890625 C3.73861816 2.22900391 4.30145508 2.56738281 4.88134766 2.91601562 C6.80595852 4.07109433 8.73654607 5.21572651 10.66796875 6.359375 C12.0080319 7.15588099 13.34787885 7.95275085 14.6875 8.75 C15.63943237 9.31460938 15.63943237 9.31460938 16.6105957 9.890625 C19.77178875 11.78320082 22.74910172 13.78331358 25.6875 16 C27.54949556 16.93099778 29.41281823 17.85951221 31.28515625 18.76953125 C35.2027061 20.77608117 38.96285219 23.04732052 42.75390625 25.28125 C45.17452015 26.69945255 47.60581013 28.08334692 50.0625 29.4375 C59.57751828 34.69308771 68.9490269 40.12280345 78.1875 45.8515625 C82.26321849 48.3657121 86.37760801 50.81332613 90.5 53.25 C91.19327393 53.66233887 91.88654785 54.07467773 92.60083008 54.49951172 C96.59836508 56.85381199 100.64688234 58.99835344 104.80981445 61.04394531 C107.59507203 62.46210533 110.22699009 64.09199638 112.875 65.75 C113.70390747 66.26542358 113.70390747 66.26542358 114.54956055 66.79125977 C116.2642675 67.85757873 117.97625902 68.92812921 119.6875 70 C127.74741321 75.04490864 135.89534857 79.85482068 144.1953125 84.48828125 C149.49749756 87.44828579 154.78273495 90.43771529 160.0625 93.4375 C160.98482422 93.95795898 161.90714844 94.47841797 162.85742188 95.01464844 C164.14616211 95.74796387 164.14616211 95.74796387 165.4609375 96.49609375 C166.22841309 96.93107178 166.99588867 97.3660498 167.78662109 97.81420898 C169.6875 99 169.6875 99 171.6875 101 C171.53736153 105.20387718 168.47267461 108.1209431 165.6875 111 C164.02083333 112.33333333 162.35416667 113.66666667 160.6875 115 C159.8625 115.99 159.0375 116.98 158.1875 118 C155.6875 121 155.6875 121 153.25 122.9375 C150.41461984 125.21963525 148.62138407 127.69866531 146.60546875 130.70703125 C144.02376163 132.44744888 142.05384967 132.17547598 139.05786133 131.66088867 C134.24655611 130.31943196 129.88021414 127.99447535 125.4375 125.75 C123.37733861 124.73617225 121.3161519 123.72442513 119.25390625 122.71484375 C118.2808252 122.23644043 117.30774414 121.75803711 116.30517578 121.26513672 C112.4969404 119.42459617 108.61742281 117.8123669 104.6953125 116.234375 C91.6438871 110.87820562 78.81205908 104.88477251 66.0859375 98.8046875 C65.26665771 98.414021 64.44737793 98.02335449 63.60327148 97.62084961 C62.01289317 96.86146002 60.42374858 96.09947812 58.83618164 95.33422852 C53.55645233 92.81179808 48.20485502 90.52238688 42.7956543 88.29223633 C33.35397549 84.36679403 24.02795939 80.15915387 14.6875 76 C13.9027832 75.65114746 13.11806641 75.30229492 12.30957031 74.94287109 C4.39392859 71.4043974 -3.15604221 67.43556265 -10.625 63.0390625 C-14.68576327 60.72211716 -18.92693416 58.85248591 -23.1875 56.9375 C-33.2620997 52.3209983 -39.65709952 47.30981394 -44.3125 37 C-46.58060444 30.19568669 -46.22010754 23.02438596 -43.125 16.5625 C-37.60407452 6.95823075 -27.88955775 0.55197921 -17.3125 -2.5078125 C-9.94598215 -4.3206665 -6.49619061 -3.88154128 0 0 Z " fill="#000000" transform="translate(74.3125,234)"/>
<path d="M0 0 C8.42386355 6.62003838 12.26674602 16.82105963 16.87695312 26.19873047 C18.31036364 29.09721987 19.76144545 31.98648233 21.21484375 34.875 C21.74907959 35.93783203 22.28331543 37.00066406 22.83374023 38.09570312 C23.89202387 40.20043528 24.95139131 42.30462293 26.01196289 44.40820312 C28.54991726 49.46828868 30.94779098 54.52682956 33.13671875 59.74609375 C34.23344101 62.08293537 35.3379007 64.41615798 36.44921875 66.74609375 C38.72698827 71.56215232 40.80817115 76.38666583 42.69921875 81.37109375 C46.27643654 90.53771433 50.67978677 99.31969679 55.02368164 108.14111328 C58.25540895 114.72243069 61.28912854 121.33564414 64.05737305 128.1262207 C65.43659176 131.47396918 66.95356428 134.72776975 68.51171875 137.99609375 C71.23033819 143.74919191 73.83907079 149.54031948 76.35083008 155.38671875 C78.04561071 159.31498667 79.81211068 163.1981153 81.6484375 167.0625 C82.28289795 168.41565308 82.28289795 168.41565308 82.93017578 169.79614258 C83.76344372 171.56896101 84.60912222 173.33600947 85.46826172 175.09643555 C85.8448291 175.9037915 86.22139648 176.71114746 86.609375 177.54296875 C86.95234619 178.25807617 87.29531738 178.97318359 87.64868164 179.70996094 C88.13671875 181.74609375 88.13671875 181.74609375 87.37670898 183.84765625 C85.60192429 186.56486944 83.43567027 188.71050823 81.13671875 190.99609375 C79.80640625 192.33414063 79.80640625 192.33414063 78.44921875 193.69921875 C76.13671875 195.74609375 76.13671875 195.74609375 74.13671875 195.74609375 C73.88921875 196.30296875 73.64171875 196.85984375 73.38671875 197.43359375 C69.68730448 204.27751015 69.68730448 204.27751015 66.00390625 205.390625 C65.38773437 205.50792969 64.7715625 205.62523437 64.13671875 205.74609375 C57.27981218 196.53824779 51.14498669 187.02108352 45.13671875 177.24609375 C43.8039531 175.07907784 42.47064743 172.91239393 41.13671875 170.74609375 C40.5953125 169.864375 40.05390625 168.98265625 39.49609375 168.07421875 C35.88795893 162.29419695 32.02772404 156.72972619 28.07421875 151.18359375 C24.32317117 145.92051825 20.72703241 140.65525026 17.484375 135.05859375 C13.09358406 127.52425103 8.19818597 120.28551066 3.32421875 113.05859375 C1.48344311 110.27113349 -0.31281719 107.46391126 -2.09765625 104.640625 C-6.67721277 97.42305821 -11.46646121 90.34827923 -16.25390625 83.26757812 C-16.93453125 82.25373047 -17.61515625 81.23988281 -18.31640625 80.1953125 C-18.92645508 79.29127686 -19.53650391 78.38724121 -20.16503906 77.45581055 C-21.93472117 74.63210414 -23.39319811 71.73449349 -24.86328125 68.74609375 C-26.01159533 67.07268454 -27.20113036 65.42697374 -28.42578125 63.80859375 C-33.10878157 57.48395125 -37.46373043 50.97049009 -41.77392578 44.38916016 C-42.69688197 42.99707249 -43.64996199 41.6250297 -44.609375 40.2578125 C-47.61591154 35.87150565 -48.59282238 33.03526698 -47.86328125 27.74609375 C-44.88138324 14.96653084 -40.20334226 5.31206125 -29.046875 -2.0546875 C-20.38119077 -6.81383788 -8.02516237 -5.40058096 0 0 Z " fill="#000000" transform="translate(277.86328125,34.25390625)"/>
<path d="M0 0 C2.7534589 1.92971311 4.18627448 3.69901691 6.04589844 6.48657227 C6.67496094 7.41985352 7.30402344 8.35313477 7.95214844 9.31469727 C8.59410156 10.28922852 9.23605469 11.26375977 9.89746094 12.26782227 C10.53167969 13.21141602 11.16589844 14.15500977 11.81933594 15.12719727 C16.76588392 22.51673425 21.52799715 30.02080738 26.27197266 37.54125977 C30.03449852 43.50300022 33.91573749 49.37682954 37.83911133 55.2331543 C40.19677813 58.75874556 42.5151732 62.30168269 44.77246094 65.89282227 C47.64666278 70.45732852 50.63826869 74.93581307 53.64624023 79.41259766 C58.67575715 86.89895342 63.57559191 94.35888075 68.01855469 102.20922852 C70.58817119 106.58091373 73.55711993 110.65889683 76.52246094 114.76782227 C83.3000496 124.2564464 89.72409868 133.97179988 95.64746094 144.01782227 C97.65944543 147.41757445 99.80495271 150.66648805 102.08496094 153.89282227 C106.86675509 160.66614316 106.86675509 160.66614316 108.52246094 163.14282227 C109.14121094 164.05161133 109.14121094 164.05161133 109.77246094 164.97875977 C110.75606788 167.32507215 110.46479306 168.43603105 109.52246094 170.76782227 C107.90509834 172.16055117 106.22996073 173.48719742 104.52246094 174.76782227 C102.04965423 177.10696375 99.75440897 179.48296552 97.60449219 182.12329102 C96.57388672 183.37045898 96.57388672 183.37045898 95.52246094 184.64282227 C94.88308594 185.44461914 94.24371094 186.24641602 93.58496094 187.07250977 C91.52246094 188.76782227 91.52246094 188.76782227 88.92871094 188.73266602 C86.22186117 187.64728957 85.49790113 186.91614573 84.02246094 184.45532227 C81.87928459 181.16734365 79.62471777 179.20530978 76.52246094 176.76782227 C73.18577535 173.25552164 70.1276565 169.48896651 67.01464844 165.77954102 C66.10093541 164.69200772 65.18686254 163.60477667 64.27246094 162.51782227 C63.80662598 161.96400879 63.34079102 161.41019531 62.86083984 160.83959961 C58.70841622 155.93116023 54.38438544 151.19694004 50.01855469 146.47875977 C47.36007161 143.59145577 44.7668574 140.656785 42.19824219 137.68969727 C40.33043903 135.54760134 38.42569049 133.44097837 36.52246094 131.33032227 C33.82847888 128.3132708 31.291439 125.23095952 28.83496094 122.01782227 C26.27034551 118.66812048 23.5913581 115.67519853 20.52246094 112.76782227 C13.52257053 105.96237326 7.04801413 98.71004412 1.22558594 90.87329102 C-0.84262163 88.31649313 -3.13856963 86.07911159 -5.47753906 83.76782227 C-7.32274663 81.79801017 -9.15659176 79.82214278 -10.97753906 77.83032227 C-11.43773437 77.33081055 -11.89792969 76.83129883 -12.37207031 76.31665039 C-21.47753906 66.37758239 -21.47753906 66.37758239 -21.47753906 63.76782227 C-22.05117187 63.54094727 -22.62480469 63.31407227 -23.21582031 63.08032227 C-26.10276959 61.40499419 -27.61412506 59.39777392 -29.66503906 56.76782227 C-32.78010766 52.80930486 -36.01046255 49.17113749 -39.54003906 45.58032227 C-42.34722238 42.44979846 -43.38845471 41.21324404 -44.22753906 37.01782227 C-43.97753906 35.10375977 -43.97753906 35.10375977 -43.47753906 32.76782227 C-43.29191406 31.64633789 -43.10628906 30.52485352 -42.91503906 29.36938477 C-41.74878955 23.04778229 -40.76169174 17.7284201 -36.47753906 12.76782227 C-35.86007813 11.96602539 -35.24261719 11.16422852 -34.60644531 10.33813477 C-26.7184935 0.63637585 -12.40160582 -6.16780691 0 0 Z " fill="#000000" transform="translate(223.4775390625,81.232177734375)"/>
<path d="M0 0 C3.53413848 2.20408636 6.14688994 4.99414217 9 8 C10.30754973 9.05365658 11.64043043 10.07687884 13 11.0625 C13.65613281 11.54460937 14.31226563 12.02671875 14.98828125 12.5234375 C15.65214844 13.01070312 16.31601563 13.49796875 17 14 C22.85160694 18.40828515 28.47243367 23.05480439 34.05029297 27.80029297 C41.21449463 33.89352492 48.43363596 39.89212705 55.9921875 45.4921875 C62.96355746 50.72749646 69.61399912 56.34785356 76.24829102 61.99829102 C80.01621797 65.19671875 83.85781354 68.27079733 87.78125 71.27734375 C91.21493659 73.94328704 94.55628564 76.71994352 97.9140625 79.48046875 C101.42303082 82.34538592 104.95886347 85.17502834 108.5 88 C113.84773164 92.26728668 119.16064429 96.57351398 124.44921875 100.9140625 C134.12908037 108.82990646 143.96711853 116.53684839 154 124 C153.76058646 128.64291259 151.80498766 130.55188365 148.53515625 133.50976562 C147.94605469 134.02216797 147.35695313 134.53457031 146.75 135.0625 C146.17636719 135.57876953 145.60273438 136.09503906 145.01171875 136.62695312 C143.88358642 137.6355908 142.74636604 138.63417043 141.59960938 139.62158203 C140.1539398 140.86734675 138.73899322 142.14854857 137.328125 143.43359375 C135 145 135 145 133.14453125 144.96875 C129.96247052 143.53131637 126.80539119 142.07129146 123.6875 140.5 C122.98254395 140.14615234 122.27758789 139.79230469 121.55126953 139.42773438 C115.41244643 136.29872925 109.52777344 132.82193026 103.65625 129.22265625 C100.10604476 127.04815554 96.50047125 124.98330882 92.875 122.9375 C88.35976121 120.37548249 83.91010793 117.73896534 79.5 115 C70.97412942 109.71022628 62.27703387 104.7469195 53.4375 100 C46.04739891 95.99657774 38.96971649 91.48414725 31.84765625 87.02734375 C21.46414432 80.57134066 10.83948691 74.58534754 0.0625 68.8125 C-4.10492426 66.56034408 -7.98916145 64.03828676 -11.89453125 61.36328125 C-13.84693371 60.09910971 -15.77788933 59.06213693 -17.875 58.0625 C-23.20537244 55.50858398 -28.05708315 52.22303348 -33 49 C-33.88042969 48.45730469 -34.76085937 47.91460937 -35.66796875 47.35546875 C-36.47878906 46.84628906 -37.28960937 46.33710938 -38.125 45.8125 C-39.21167969 45.14154297 -39.21167969 45.14154297 -40.3203125 44.45703125 C-42.92082292 42.20123965 -42.9018002 40.07642091 -43.203125 36.7734375 C-43.39223635 27.09723986 -41.3120454 19.51318983 -35.0078125 12.03515625 C-26.13736183 3.04390178 -12.65012543 -2.66826026 0 0 Z " fill="#000000" transform="translate(122,181)"/>
<path d="M0 0 C2.08254754 2.06592041 3.78990984 4.1977433 5.51953125 6.56640625 C6.2053125 7.39527344 6.89109375 8.22414062 7.59765625 9.078125 C10.60309539 12.7124801 13.44262447 16.40904915 16.08203125 20.31640625 C18.24253806 23.41626385 20.78361347 25.59541166 23.6953125 27.9765625 C28.93274145 32.54108837 33.02526402 38.19225716 37.12109375 43.76171875 C39.04802732 46.2484319 41.26913661 48.37227148 43.51953125 50.56640625 C44.6377014 51.78284788 45.741467 53.01265513 46.83203125 54.25390625 C47.34378906 54.83527344 47.85554688 55.41664063 48.3828125 56.015625 C49.51953125 57.56640625 49.51953125 57.56640625 49.51953125 59.56640625 C50.36451172 59.90865234 50.36451172 59.90865234 51.2265625 60.2578125 C54.15434858 61.92869553 55.96485415 63.98732422 58.20703125 66.50390625 C58.86167358 67.23589233 58.86167358 67.23589233 59.52954102 67.98266602 C63.20659175 72.12808 66.68411639 76.42684359 70.1640625 80.73828125 C73.61776069 84.88501008 77.28190171 88.82411852 80.94921875 92.78125 C84.75073214 96.90051906 88.41927783 101.12927008 92.078125 105.375 C94.84151332 108.56250547 97.6390747 111.70659341 100.5234375 114.78515625 C101.05751221 115.35661377 101.59158691 115.92807129 102.1418457 116.5168457 C103.20543942 117.65190935 104.27283555 118.78342513 105.34448242 119.91088867 C107.53712663 122.2516797 109.41127185 124.38570053 111.06640625 127.1484375 C112.84953202 130.11552043 115.02108845 132.17358275 117.51953125 134.56640625 C119.50646446 136.56070839 121.45463716 138.58893826 123.39453125 140.62890625 C124.16023438 141.40331055 124.16023438 141.40331055 124.94140625 142.19335938 C128.528405 145.99848642 128.528405 145.99848642 128.484375 148.81640625 C127.04987579 151.41825097 124.86133727 152.76920628 122.51953125 154.56640625 C121.92140625 155.32953125 121.32328125 156.09265625 120.70703125 156.87890625 C117.70245643 160.57024102 114.15138798 163.50753662 110.51953125 166.56640625 C100.43237985 160.73419871 91.45272346 152.998589 82.51953125 145.56640625 C81.65908203 144.85871094 81.65908203 144.85871094 80.78125 144.13671875 C78.03981292 141.87558736 75.36599805 139.54798074 72.70703125 137.19140625 C68.45461916 133.45639791 64.01332254 130.00419512 59.51953125 126.56640625 C53.68835794 122.08088832 47.95677643 117.49187482 42.2734375 112.8203125 C39.7032631 110.71677969 37.11656866 108.63662783 34.51953125 106.56640625 C30.19302876 103.11469815 25.90588757 99.61740839 21.625 96.109375 C17.98990424 93.13152551 14.35071568 90.15874153 10.70703125 87.19140625 C10.02737305 86.63783447 9.34771484 86.0842627 8.64746094 85.51391602 C3.61240028 81.42516531 -1.48995834 77.42997269 -6.61254883 73.4519043 C-10.03954322 70.76736807 -13.2900417 67.97089949 -16.48046875 65.00390625 C-20.27831013 61.49964801 -24.25380761 58.51613391 -28.48046875 55.56640625 C-30.25365574 54.29853661 -32.02413511 53.02697234 -33.79394531 51.75439453 C-35.37038603 50.6439486 -36.98303376 49.58540829 -38.59765625 48.53125 C-44.89677147 43.90059731 -44.89677147 43.90059731 -45.95703125 39.66064453 C-47.03491941 31.29738728 -46.25179234 22.66917206 -41.48046875 15.56640625 C-40.67609375 14.30570313 -40.67609375 14.30570313 -39.85546875 13.01953125 C-32.15165703 2.16999641 -13.08037611 -7.55983942 0 0 Z " fill="#000000" transform="translate(175.48046875,131.43359375)"/>
<path d="M0 0 C3.50724282 1.1487491 5.15273943 2.91252909 7.6953125 5.5703125 C8.56929688 6.4778125 9.44328125 7.3853125 10.34375 8.3203125 C12.07074592 10.20222168 13.72804446 12.07726951 15.3203125 14.0703125 C17.96185683 17.19845711 20.86093343 19.68364916 24.0234375 22.26953125 C25.6953125 23.8828125 25.6953125 23.8828125 26.6953125 26.8828125 C27.6853125 27.3159375 27.6853125 27.3159375 28.6953125 27.7578125 C29.6853125 28.3146875 29.6853125 28.3146875 30.6953125 28.8828125 C31.3203125 31.453125 31.3203125 31.453125 31.6953125 33.8828125 C31.16421875 34.33011719 30.633125 34.77742188 30.0859375 35.23828125 C26.1855624 38.576376 22.8932501 41.85960068 19.6953125 45.8828125 C18.60726621 46.83897439 17.50122258 47.77485111 16.3828125 48.6953125 C12.98200923 51.52081928 10.17213534 54.65578975 7.3046875 58.01171875 C3.90278684 61.96684112 0.11737912 65.39659428 -3.8046875 68.8203125 C-6.43519318 71.13289282 -8.86625574 73.39727281 -11.0546875 76.1328125 C-13.3046875 78.8828125 -13.3046875 78.8828125 -15.6796875 80.7578125 C-18.71854721 83.21784179 -21.08504211 85.98175575 -23.625 88.94140625 C-27.04184354 92.89064169 -30.81272507 96.33347296 -34.7421875 99.7578125 C-38.15422612 102.75678508 -41.10473518 105.86506241 -43.98046875 109.37109375 C-45.3046875 110.8828125 -45.3046875 110.8828125 -47.7421875 112.8203125 C-50.76215327 115.25101665 -53.08670738 118.00621287 -55.55859375 120.98046875 C-57.34290779 122.92445295 -59.10301312 124.43160618 -61.3046875 125.8828125 C-65.48211188 125.8828125 -68.45523204 122.64035004 -71.3046875 119.8828125 C-72.8746687 118.14192195 -74.38450877 116.3620626 -75.88671875 114.5625 C-80.13268612 109.53284168 -85.16544455 105.30199746 -90.09765625 100.96875 C-92.3046875 98.8828125 -92.3046875 98.8828125 -94.3046875 95.8828125 C-94.3046875 94.5628125 -94.3046875 93.2428125 -94.3046875 91.8828125 C-93.6446875 91.8828125 -92.9846875 91.8828125 -92.3046875 91.8828125 C-92.09585937 91.33496094 -91.88703125 90.78710938 -91.671875 90.22265625 C-89.8054162 87.02834533 -87.18716819 84.84901569 -84.4296875 82.4453125 C-80.66005804 79.13886135 -77.36484373 75.88821699 -74.3046875 71.8828125 C-71.49297342 68.91489208 -68.53842606 66.21694128 -65.4296875 63.5703125 C-61.96462481 60.57893815 -59.04753075 57.35317854 -56.09765625 53.86328125 C-53.63472384 51.14278728 -50.88067875 48.84281181 -48.0859375 46.47265625 C-45.85733658 44.48353218 -44.11400187 42.25363822 -42.3046875 39.8828125 C-40.65980456 38.19464317 -38.99131208 36.52927935 -37.3046875 34.8828125 C-36.78261719 34.33882813 -36.26054687 33.79484375 -35.72265625 33.234375 C-34.28745035 31.74678932 -32.7991509 30.31085531 -31.3046875 28.8828125 C-30.6446875 28.8828125 -29.9846875 28.8828125 -29.3046875 28.8828125 C-29.0368042 28.2837207 -28.7689209 27.68462891 -28.49291992 27.06738281 C-27.28853236 24.85311121 -26.16331686 23.59335321 -24.29296875 21.9296875 C-23.40810791 21.13002563 -23.40810791 21.13002563 -22.50537109 20.31420898 C-21.88227051 19.75934814 -21.25916992 19.2044873 -20.6171875 18.6328125 C-15.48508162 13.97527301 -10.71642869 9.2399268 -6.3046875 3.8828125 C-2.95998302 -0.15050761 -2.95998302 -0.15050761 0 0 Z " fill="#000000" transform="translate(432.3046875,338.1171875)"/>
<path d="M0 0 C1.32 0 2.64 0 4 0 C5.1492567 2.74861395 6.29451341 5.49877984 7.4375 8.25 C7.76298828 9.02730469 8.08847656 9.80460937 8.42382812 10.60546875 C8.73642578 11.35957031 9.04902344 12.11367188 9.37109375 12.890625 C9.65911865 13.58188477 9.94714355 14.27314453 10.24389648 14.98535156 C15.20010432 28.19123695 13.85260406 47.99189015 8.54296875 60.88671875 C8.03378906 61.91410156 7.52460938 62.94148438 7 64 C6.48050781 65.05832031 5.96101563 66.11664063 5.42578125 67.20703125 C-3.26704535 83.31611551 -16.52767214 92.88009272 -33 100 C-39.05353439 101.54092351 -45.2959785 101.22351072 -51.49975586 101.24023438 C-53.66364681 101.24989352 -55.82656769 101.28093163 -57.99023438 101.3125 C-68.17724252 101.39048519 -79.59078189 100.52098637 -88 94 C-88.89453125 92.09765625 -88.89453125 92.09765625 -89 90 C-87.8828125 88.2109375 -87.8828125 88.2109375 -86.125 86.375 C-85.16013672 85.34439453 -85.16013672 85.34439453 -84.17578125 84.29296875 C-83.09876953 83.15794922 -83.09876953 83.15794922 -82 82 C-80.43542081 80.23100342 -78.87294482 78.46014461 -77.3125 76.6875 C-74.72997492 73.76553113 -72.28150369 71.13470451 -69 69 C-68.34 69 -67.68 69 -67 69 C-66.79375 68.46375 -66.5875 67.9275 -66.375 67.375 C-64.46749574 64.08021991 -61.95180616 61.40636372 -59 59 C-58.34 59 -57.68 59 -57 59 C-56.75894531 58.43023437 -56.51789063 57.86046875 -56.26953125 57.2734375 C-54.75271334 54.55716666 -52.93237093 52.77554863 -50.6875 50.625 C-48.12586067 48.12862537 -45.64653055 45.6892444 -43.4375 42.875 C-39.79387461 38.57739057 -35.5242407 35.07020169 -31.17578125 31.50390625 C-26.60818967 27.71639772 -22.84073798 23.51146976 -19 19 C-14.15560922 13.4197524 -9.29264088 8.13482547 -3.62890625 3.375 C-1.89099423 1.94714425 -1.89099423 1.94714425 0 0 Z " fill="#000000" transform="translate(470,381)"/>
</svg>
