<?xml version="1.0" encoding="UTF-8"?>
<svg version="1.1" xmlns="http://www.w3.org/2000/svg" width="626" height="626">
<path d="M0 0 C1.03024607 -0.00311998 2.06049213 -0.00623996 3.12195778 -0.00945449 C6.56101899 -0.01740753 9.99990244 -0.01112127 13.43896484 -0.00482178 C15.90989281 -0.00753283 18.38081997 -0.0110944 20.85174561 -0.01544189 C26.85852974 -0.02360881 32.86524456 -0.02242178 38.87202597 -0.01661661 C43.75544742 -0.01209316 48.63885488 -0.01149017 53.52227783 -0.01366425 C54.21827516 -0.01397071 54.91427249 -0.01427718 55.63136065 -0.01459293 C57.04542653 -0.0152324 58.45949241 -0.01588083 59.87355828 -0.01653811 C73.12193444 -0.02223623 86.37028288 -0.01569165 99.61865449 -0.00493738 C110.97739161 0.00399766 122.33608784 0.00244547 133.69482422 -0.0067749 C146.89697378 -0.01748669 160.09909907 -0.02168696 173.30125237 -0.01555037 C174.71001052 -0.0149133 176.11876869 -0.01428456 177.52752686 -0.01366425 C178.56713214 -0.01320142 178.56713214 -0.01320142 179.62773955 -0.01272924 C184.50323612 -0.01100503 189.37871725 -0.0139115 194.25421143 -0.01862335 C200.82057184 -0.02483004 207.3868671 -0.02038807 213.95322418 -0.00883484 C216.36225507 -0.0061917 218.77129245 -0.00694743 221.18032074 -0.01136017 C224.47023622 -0.01683058 227.7599049 -0.00996308 231.04980469 0 C232.00156397 -0.00446144 232.95332325 -0.00892289 233.93392372 -0.01351953 C243.5568548 0.04294734 251.02733169 1.97822296 258.52490234 8.25396729 C265.49804596 15.59092709 267.98675755 23.50145027 267.90521908 33.42515373 C267.909879 34.31947308 267.91453892 35.21379243 267.91934004 36.13521236 C267.93128315 39.1295272 267.92189712 42.12338773 267.9125824 45.1177063 C267.9167556 47.28713161 267.92223305 49.45655474 267.92890221 51.62597382 C267.9433772 57.58586415 267.93910561 63.54561643 267.9317354 69.50551438 C267.92701113 75.93372289 267.93950702 82.36190122 267.94975281 88.7901001 C267.96655929 100.6549805 267.9683831 112.51981904 267.96344782 124.38470855 C267.95889027 135.34692321 267.95949027 146.30912148 267.96528816 157.2713356 C267.96604503 158.74191021 267.96680101 160.21248482 267.96755611 161.68305943 C267.9687013 163.89909906 267.96985118 166.11513869 267.97101535 168.33117831 C267.9817202 188.9336361 267.98644577 209.53608843 267.97854519 230.1385479 C267.97824802 230.91515208 267.97795084 231.69175627 267.97764466 232.49189391 C267.97519574 238.79842273 267.97258415 245.10495148 267.96996053 251.41148023 C267.95985846 276.01020627 267.9682128 300.60886405 267.99145508 325.20758057 C268.01752857 352.84743336 268.03037535 380.48724505 268.02326733 408.1271106 C268.02255127 411.07439621 268.02187688 414.02168182 268.02122688 416.96896744 C268.02105707 417.69465836 268.02088726 418.42034928 268.02071231 419.16803083 C268.01840956 430.12141393 268.02638517 441.07475886 268.03951836 452.02813339 C268.05442834 464.48557785 268.05489998 476.94292649 268.03744745 489.40036927 C268.02891986 495.75700999 268.026831 502.11347992 268.042099 508.47011185 C268.05590337 514.28939128 268.05123738 520.1083529 268.03185976 525.92761375 C268.02808641 528.03251749 268.03105998 530.13744642 268.04147141 532.24232779 C268.1018961 545.39384676 268.09459685 556.37427098 258.58740234 566.49615479 C250.37966153 573.49138843 241.72167529 574.40311708 231.39279175 574.40113831 C230.3631421 574.40481499 229.33349245 574.40849168 228.2726413 574.41227978 C224.81749801 574.42330541 221.36238481 574.42715858 217.90722656 574.43096924 C215.43175664 574.43723472 212.95628766 574.44388159 210.4808197 574.45088196 C203.04934301 574.47009821 195.61787431 574.48070829 188.18638009 574.48960975 C184.68318321 574.49399756 181.17998784 574.49936306 177.67679214 574.50459862 C166.02548728 574.52160727 154.37418334 574.53610051 142.72286797 574.54334736 C139.70147577 574.54525712 136.68008358 574.54717747 133.65869141 574.5491333 C132.90777879 574.54961704 132.15686618 574.55010078 131.38319863 574.55059918 C119.22413104 574.55889612 107.06516194 574.58422895 94.90613733 574.61671398 C82.41137684 574.64982277 69.91666634 574.66779954 57.42186177 574.6709916 C50.41107072 574.6731531 43.40042332 574.68184882 36.38967514 574.70745277 C29.79212497 574.7314927 23.19478629 574.73496153 16.59718513 574.72469139 C14.17973153 574.72419623 11.76226517 574.73051071 9.34485054 574.74424744 C6.03589787 574.76199368 2.72786897 574.75484592 -0.58108521 574.74171448 C-2.0045223 574.75816835 -2.0045223 574.75816835 -3.4567157 574.77495462 C-13.0752421 574.68326039 -21.70413868 571.96939329 -28.75244141 565.25396729 C-35.08276981 557.90447036 -36.6267418 551.06149554 -36.60652542 541.58779621 C-36.60857805 540.69948102 -36.61063069 539.81116582 -36.61274552 538.89593199 C-36.61843198 535.89810127 -36.61695624 532.90031626 -36.61553955 529.90248108 C-36.61812224 527.73992236 -36.62113513 525.57736412 -36.62454295 523.41480654 C-36.63262748 517.45539083 -36.63440333 511.49598716 -36.63514042 505.53656662 C-36.63698845 499.11581528 -36.64453452 492.69507023 -36.65127563 486.27432251 C-36.66557886 471.4941387 -36.67138684 456.71395735 -36.67596758 441.93376783 C-36.67830304 434.63084655 -36.68190564 427.32792605 -36.68566296 420.02500539 C-36.69849883 395.02908834 -36.70921802 370.03317174 -36.71266556 345.03725147 C-36.71288719 343.46796727 -36.71310897 341.89868306 -36.71333091 340.32939885 C-36.71355155 338.75631182 -36.71377203 337.18322479 -36.71399236 335.61013776 C-36.71443491 332.45422351 -36.71488203 329.29830927 -36.71533203 326.14239502 C-36.71544142 325.35991098 -36.71555081 324.57742695 -36.71566352 323.77123127 C-36.7192944 298.39740836 -36.73521543 273.02361402 -36.7585224 247.64980205 C-36.78311561 220.82666108 -36.79683816 194.00353644 -36.79803348 167.18038386 C-36.79820493 164.23614323 -36.79842036 161.2919026 -36.79866791 158.34766197 C-36.79872368 157.62270078 -36.79877945 156.89773958 -36.7988369 156.15080987 C-36.79998779 144.48152862 -36.81101299 132.81227668 -36.82555496 121.14300533 C-36.83991776 109.41475426 -36.84290557 97.68654399 -36.83511499 85.9582865 C-36.83120185 79.60384571 -36.83217053 73.24950357 -36.84617233 66.89507484 C-36.85887125 61.07882646 -36.85774895 55.26275125 -36.84558162 49.44650324 C-36.84361767 47.34149515 -36.84673512 45.23647496 -36.85542598 43.13148389 C-36.86649075 40.2705602 -36.85904925 37.41025068 -36.84703445 34.54934406 C-36.85462965 33.73184922 -36.86222484 32.91435438 -36.87005019 32.07208696 C-36.78638611 22.84568681 -33.93192648 14.92134487 -27.47509766 8.25396729 C-19.01984093 1.19226213 -10.6988689 -0.05015175 0 0 Z M-25.47509766 16.25396729 C-29.0253233 22.2448468 -30.05729974 27.66562078 -29.97846222 34.53817081 C-29.98427598 35.43255483 -29.99008975 36.32693884 -29.99607968 37.24842539 C-30.01064519 40.23704603 -29.99681039 43.22484094 -29.98303223 46.2134552 C-29.98764248 48.38104561 -29.99399623 50.54863289 -30.0019412 52.71621364 C-30.01864021 58.66634602 -30.01038538 64.6162218 -29.99799633 70.56635511 C-29.98895066 76.98565051 -30.00291316 83.40490161 -30.01391602 89.82418823 C-30.03068226 101.67025576 -30.02921886 113.51623197 -30.01827014 125.36230393 C-30.0082056 136.30551401 -30.0055822 147.24869412 -30.01036072 158.19190788 C-30.01066626 158.91796029 -30.0109718 159.64401269 -30.0112866 160.39206669 C-30.01253196 163.33938228 -30.01380556 166.28669786 -30.01512565 169.23401342 C-30.0273596 196.87767642 -30.01627084 224.52128733 -29.99473806 252.16494229 C-29.97575385 276.72353516 -29.97745606 301.28204506 -29.99658203 325.84063721 C-30.01800076 353.43543471 -30.02649396 381.03018622 -30.01413298 408.62499088 C-30.01285011 411.56660806 -30.01159875 414.50822525 -30.01036072 417.44984245 C-30.00988625 418.53628663 -30.00988625 418.53628663 -30.0094022 419.64467916 C-30.00485259 430.58158363 -30.01017285 441.51845483 -30.02027893 452.45535469 C-30.0317122 464.89051549 -30.02847933 477.32556436 -30.00715595 489.76071543 C-29.99663276 496.10698568 -29.99254557 502.4530874 -30.00575256 508.79935646 C-30.01765555 514.60677805 -30.01114808 520.4138746 -29.98984236 526.22126662 C-29.98536749 528.32408373 -29.9876623 530.42692819 -29.99734551 532.52972776 C-30.0094888 535.38541194 -29.99705485 538.23997919 -29.97846222 541.0956049 C-29.98782688 541.91429752 -29.99719155 542.73299014 -30.00683999 543.57649162 C-29.92185209 550.0962253 -27.99990362 555.19414292 -23.83447266 560.24224854 C-23.30337891 560.67924072 -22.77228516 561.11623291 -22.22509766 561.56646729 C-21.70431641 562.0163501 -21.18353516 562.46623291 -20.64697266 562.92974854 C-13.86910691 567.06229618 -7.7629154 567.69065284 -0.01345825 567.64164734 C1.52979415 567.64972565 1.52979415 567.64972565 3.10422337 567.65796715 C6.53868078 567.67223143 9.97275194 567.66514658 13.40722656 567.65802002 C15.87491159 567.66372438 18.34259398 567.6706889 20.81027222 567.67881775 C26.80973032 567.69489537 32.80903767 567.69685112 38.80850254 567.69160485 C43.68714608 567.68755684 48.56575872 567.68901417 53.44440079 567.6943531 C54.13982067 567.69510153 54.83524056 567.69584995 55.55173377 567.69662105 C56.96466819 567.69815259 58.37760261 567.69969094 59.79053701 567.70123602 C73.02944533 567.71495187 86.26829449 567.70952996 99.50720145 567.6980508 C111.60533358 567.68812082 123.70331273 567.7010566 135.80142127 567.724985 C148.23865521 567.74939784 160.67581796 567.75897842 173.11307538 567.75233227 C180.08967928 567.74884471 187.06616558 567.75104134 194.04275131 567.7685833 C200.60424894 567.78487757 207.16550244 567.78008965 213.72700882 567.76127815 C216.13197525 567.75759394 218.53696332 567.76069577 220.94190979 567.77116394 C224.23137356 567.78438649 227.51987286 567.77281398 230.80929565 567.75517273 C232.22819605 567.76958024 232.22819605 567.76958024 233.6757611 567.78427881 C241.14822063 567.70213556 248.01243617 566.03466968 253.96240234 561.32427979 C254.73583984 560.3613501 254.73583984 560.3613501 255.52490234 559.37896729 C256.06115234 558.74217041 256.59740234 558.10537354 257.14990234 557.44927979 C260.59877717 551.94283759 260.81359014 546.64273714 260.78217125 540.35731792 C260.78567732 539.46838342 260.7891834 538.57944891 260.79279572 537.66357699 C260.80212255 534.67563457 260.79718305 531.68788651 260.79232788 528.69993591 C260.79606349 526.53977481 260.80066465 524.37961505 260.80605853 522.21945745 C260.81831494 516.27594895 260.81802495 510.33249662 260.81566978 504.38897836 C260.81526228 497.98189 260.82629431 491.5748198 260.83578491 485.16773987 C260.85241017 472.61242992 260.85792104 460.05713933 260.85900967 447.50181933 C260.85992859 437.29846985 260.8640444 427.09512645 260.87041092 416.89177895 C260.87220599 413.95525291 260.87398562 411.01872687 260.87576067 408.08220083 C260.87620277 407.35218182 260.87664487 406.62216282 260.87710036 405.87002203 C260.88940949 385.33472864 260.89730141 364.79943737 260.8964138 344.26414013 C260.89638265 343.48984441 260.89635149 342.7155487 260.89631939 341.91778948 C260.89615317 337.99329428 260.89595509 334.06879908 260.89574997 330.14430388 C260.89571008 329.36487831 260.89567019 328.58545274 260.89562909 327.78240821 C260.89554822 326.20621972 260.89546462 324.63003124 260.89537831 323.05384275 C260.89415272 298.52930001 260.90916715 274.00481256 260.93652344 249.48028564 C260.96724195 221.9301878 260.98445608 194.38012629 260.98259699 166.83001024 C260.98244773 163.89254113 260.98235032 160.95507203 260.98228836 158.01760292 C260.98226505 157.29431788 260.98224174 156.57103284 260.98221773 155.82583006 C260.98215617 144.18454604 260.99492975 132.54331001 261.01215289 120.90204026 C261.02910336 109.20314391 261.03074453 97.50433351 261.01793425 85.8054299 C261.01139139 79.46715077 261.01133512 73.12904565 261.02864075 66.79078293 C261.04431789 60.9893687 261.0415625 55.18826724 261.02407248 49.38686088 C261.02099079 47.28729638 261.02467873 45.18770885 261.03579263 43.0881715 C261.04989922 40.23444882 261.03933855 37.38182542 261.02268028 34.52814007 C261.03261664 33.71282126 261.042553 32.89750246 261.05279046 32.05747703 C260.97171103 25.48861477 259.3193898 19.38486596 254.86278429 14.39175702 C247.97757969 7.83215925 240.20744443 6.80863055 231.09449768 6.87301636 C230.06904073 6.86833639 229.04358378 6.86365641 227.98705238 6.85883462 C224.56407048 6.84690533 221.14149046 6.85633406 217.71850586 6.86578369 C215.25905118 6.86171706 212.79959832 6.85637467 210.34014893 6.84985352 C204.36107301 6.837603 198.38215375 6.83938383 192.40308399 6.84809144 C187.5415957 6.85487721 182.68013905 6.85578085 177.81864738 6.85251999 C177.12571414 6.85206029 176.43278089 6.85160059 175.71884967 6.85112696 C174.31098651 6.85016775 172.90312337 6.8491951 171.49526023 6.84820919 C158.30454428 6.8396618 145.11389096 6.84947884 131.92318528 6.86561029 C120.61648343 6.87900992 109.30987401 6.87668706 98.00317383 6.862854 C84.85996971 6.84678153 71.71682044 6.84048884 58.57360786 6.84969079 C57.17072961 6.8506464 55.76785134 6.85158951 54.36497307 6.85251999 C53.32972502 6.85321423 53.32972502 6.85321423 52.27356287 6.85392249 C47.42107093 6.85650761 42.56861392 6.85215167 37.7161274 6.84508133 C31.17846231 6.83576464 24.64094433 6.84244501 18.10328674 6.8597641 C15.70596544 6.86372581 13.30862944 6.86260033 10.91131401 6.8559761 C7.63477591 6.84775824 4.35879351 6.85808579 1.08229065 6.87301636 C-0.33514259 6.86297811 -0.33514259 6.86297811 -1.78121084 6.85273707 C-11.12891504 6.93515323 -19.17866264 9.00819377 -25.47509766 16.25396729 Z " fill="#000000" transform="translate(197.47509765625,25.74603271484375)"/>
<path d="M0 0 C1.50794726 -0.00935994 1.50794726 -0.00935994 3.04635811 -0.01890898 C6.4190012 -0.03487907 9.79092561 -0.02221857 13.16357422 -0.00964355 C15.57981793 -0.01506286 17.99605835 -0.02218444 20.41229248 -0.03088379 C26.29619854 -0.04724575 32.17991757 -0.04482885 38.06381845 -0.03323323 C42.84580568 -0.02419936 47.6277357 -0.02297468 52.409729 -0.02732849 C53.43065571 -0.02824789 53.43065571 -0.02824789 54.47220719 -0.02918586 C55.85487288 -0.03046476 57.23753855 -0.03176162 58.62020421 -0.03307623 C71.58523491 -0.04448219 84.55015247 -0.03136811 97.51516461 -0.00987476 C108.63956093 0.00799628 119.76379029 0.00489217 130.88818359 -0.0135498 C143.80683834 -0.03495627 156.72539394 -0.04338355 169.64406395 -0.03110075 C171.02164076 -0.02982655 172.39921759 -0.02856907 173.77679443 -0.02732849 C174.45458706 -0.02671139 175.13237969 -0.02609429 175.83071148 -0.02545848 C180.60691211 -0.0220049 185.38304984 -0.02783408 190.15924072 -0.0372467 C196.58772865 -0.04963709 203.01597527 -0.04081454 209.44443512 -0.01766968 C211.80634282 -0.01237224 214.16827703 -0.01391394 216.53017426 -0.02272034 C219.74931845 -0.03361806 222.96744448 -0.01998107 226.18652344 0 C227.59532115 -0.01338433 227.59532115 -0.01338433 229.03257942 -0.02703905 C233.24870412 0.02387437 235.50979678 0.14971741 239.17312622 2.39881134 C241.38240485 4.82553637 241.74892397 5.83167641 241.65576172 9.07043457 C241.65705078 9.83484863 241.65833984 10.5992627 241.65966797 11.38684082 C241.09326172 13.50793457 241.09326172 13.50793457 239.67468262 15.11627293 C235.64771934 17.28723634 231.72967763 16.92410116 227.22412109 16.89561462 C225.70414646 16.90369293 225.70414646 16.90369293 224.15346527 16.91193444 C220.74785829 16.92627615 217.3426366 16.91909488 213.93701172 16.9119873 C211.49958991 16.91768757 209.06217076 16.92465049 206.62475586 16.93278503 C200.68560357 16.94889946 194.74654894 16.95080964 188.8073864 16.94557213 C183.98103639 16.94153268 179.15471765 16.9429713 174.32836914 16.94832039 C173.29848004 16.94944302 173.29848004 16.94944302 172.24778509 16.95058833 C170.85303814 16.95211979 169.45829121 16.95365814 168.06354427 16.9552033 C154.98125613 16.96893422 141.89902777 16.9634863 128.81674099 16.95201809 C116.84363112 16.94208291 104.87067572 16.95503018 92.89758968 16.97895228 C80.60741276 17.00332321 68.31730785 17.01295624 56.02710724 17.00629956 C49.12552905 17.00280313 42.22406972 17.00506728 35.32250977 17.02255058 C28.83495606 17.03878111 22.34762521 17.03412224 15.8600769 17.01524544 C13.47516946 17.01154519 11.09024033 17.01470947 8.70535278 17.02513123 C5.45735672 17.03824423 2.21035475 17.02687925 -1.03759766 17.00914001 C-1.98817299 17.01874502 -2.93874832 17.02835003 -3.91812897 17.0382461 C-10.28596785 16.96636055 -10.28596785 16.96636055 -13.48815918 14.60160923 C-15.01098445 12.35407811 -15.47449698 11.20039032 -15.46923828 8.50793457 C-15.49115234 7.84793457 -15.51306641 7.18793457 -15.53564453 6.50793457 C-13.29412377 -0.62037989 -6.10598829 -0.05801015 0 0 Z " fill="#000000" transform="translate(199.90673828125,303.4920654296875)"/>
<path d="M0 0 C8.17059169 6.81595607 12.47486361 14.08763106 13.62890625 24.73046875 C14.03451718 34.84457355 11.59412057 42.58309975 4.9375 50.25 C-1.44726669 56.85457013 -7.54758963 60.9752197 -16.91870117 61.29467773 C-28.01600707 61.37951419 -36.1530866 59.18360159 -44.625 51.5625 C-51.60380015 43.88411352 -54.09756186 34.94610253 -53.9609375 24.78125 C-53.13993807 15.86754191 -49.04833792 8.04006322 -42.6875 1.8125 C-29.87327079 -7.9288227 -13.3571793 -9.76701926 0 0 Z " fill="#000000" transform="translate(395.6875,346.1875)"/>
<path d="M0 0 C7.64895399 5.38524487 13.81987132 12.3593143 15.71484375 21.7421875 C17.09617029 32.67926613 15.56307537 41.14261258 9.25 50.25 C3.92203367 56.85988304 -2.59037812 61.41078012 -11 63 C-21.03823459 63.97801474 -29.7453111 62.74265502 -37.875 56.5625 C-39.27662541 55.40654694 -40.65271182 54.2188502 -42 53 C-42.68835938 52.39027344 -43.37671875 51.78054688 -44.0859375 51.15234375 C-49.88709819 44.62899775 -51.76271526 35.28891349 -51.359375 26.78515625 C-50.08121221 16.87939466 -45.81061817 8.929058 -38.15625 2.57421875 C-26.84248889 -5.6856467 -12.43404594 -6.72723458 0 0 Z " fill="#000000" transform="translate(393,424)"/>
<path d="M0 0 C7.05150904 5.69818912 11.19738331 12.28363863 12.75 21.25 C13.87292798 33.18110977 11.43362772 40.79405331 3.8828125 49.98828125 C-2.12277296 56.35684166 -8.81779292 59.66290874 -17.5390625 60.60546875 C-28.21546534 60.86800325 -36.37371614 58.6129619 -44.25 51.25 C-52.16360098 42.82891359 -54.90646411 34.98081316 -54.59765625 23.4609375 C-53.58027539 14.06445363 -48.63528634 6.40448179 -41.875 0 C-28.3543048 -9.0137968 -13.52660457 -9.37639635 0 0 Z " fill="#000000" transform="translate(271.25,65.75)"/>
<path d="M0 0 C8.1497603 6.08874654 13.13362605 12.48560866 15.55078125 22.453125 C16.6460425 31.88454128 15.35565688 40.86094764 9.80078125 48.703125 C3.40391406 56.47970864 -3.60427538 61.76085232 -13.88671875 62.80078125 C-23.64405438 63.04261177 -31.71043678 61.67779746 -39.44921875 55.453125 C-47.12041196 47.89969133 -51.51355412 40.16900115 -51.76171875 29.328125 C-51.68850738 20.00936322 -48.47989363 11.69450878 -41.95703125 4.8984375 C-30.70178366 -5.52693008 -13.30444402 -8.40280675 0 0 Z " fill="#000000" transform="translate(268.44921875,344.546875)"/>
<path d="M0 0 C7.71281805 5.74331756 13.23923423 11.98937301 15.62109375 21.453125 C16.79012976 31.6438126 15.67244255 40.69377375 9.703125 49.1796875 C4.08274775 55.9241402 -2.61371154 60.81462218 -11.37890625 62.453125 C-23.02869267 63.41251918 -31.06537257 61.93577057 -40.25390625 54.453125 C-47.68571554 47.54345688 -51.50530881 39.71371189 -51.87890625 29.453125 C-51.43352961 18.34744309 -46.74173343 9.45579215 -38.72265625 1.890625 C-28.00696313 -6.60105634 -11.41292606 -7.42121301 0 0 Z " fill="#000000" transform="translate(393.37890625,63.546875)"/>
<path d="M0 0 C1.38412595 1.62473102 2.71937515 3.2925002 4 5 C4.69609375 5.66257813 5.3921875 6.32515625 6.109375 7.0078125 C11.19259897 12.36410222 12.28232129 19.93352236 12.5 27.0625 C12.23410407 35.73260661 9.5211976 43.2518696 4 50 C-3.30027413 56.61847176 -11.99930055 61.13514459 -22 61 C-32.28899308 60.07662883 -41.31483179 55.91664656 -48 48 C-48 47.34 -48 46.68 -48 46 C-48.66 46 -49.32 46 -50 46 C-50.65357278 44.77493102 -51.29748233 43.54470484 -51.9375 42.3125 C-52.29714844 41.62800781 -52.65679687 40.94351563 -53.02734375 40.23828125 C-56.91648279 31.28857576 -55.6366403 21.28387938 -52.16796875 12.47265625 C-48.38875575 4.47184746 -42.98059826 -0.68285694 -34.91015625 -4.4375 C-22.46719099 -8.78122605 -10.93829363 -7.54825759 0 0 Z " fill="#000000" transform="translate(397,225)"/>
<path d="M0 0 C7.97871464 6.38297171 13.78078475 12.92211416 15.8125 23.25 C16.80547889 33.73645886 14.78917754 42.38118228 8.75 51.0625 C4.09470447 56.67505327 -2.92433993 61.01940934 -10.1875 62.25 C-21.34890043 62.91865533 -30.09045424 62.45182789 -39.1875 55.25 C-46.8423209 47.71227005 -51.22402582 40.59574254 -51.5 29.6875 C-51.43952133 21.44224114 -48.82858144 14.05935571 -44.1875 7.25 C-43.5275 7.25 -42.8675 7.25 -42.1875 7.25 C-42.1875 6.59 -42.1875 5.93 -42.1875 5.25 C-41.5275 5.25 -40.8675 5.25 -40.1875 5.25 C-40.1875 4.59 -40.1875 3.93 -40.1875 3.25 C-27.81455669 -6.08041627 -13.64959126 -7.49389324 0 0 Z " fill="#000000" transform="translate(268.1875,222.75)"/>
<path d="M0 0 C0 0.66 0 1.32 0 2 C0.680625 2.165 1.36125 2.33 2.0625 2.5 C10.48546412 6.80108806 14.15040218 15.45120653 17 24 C17.80814798 34.21063887 16.62524798 43.87872828 10 52 C9.34 52 8.68 52 8 52 C7.65195312 52.89332031 7.65195312 52.89332031 7.296875 53.8046875 C4.42097539 58.6729272 -1.91579927 61.00320835 -6.875 63.375 C-17.74224789 65.54844958 -26.71451942 63.43922522 -36.3125 58.1875 C-43.04349844 52.70878034 -47.26334853 46.2099544 -50 38 C-51.0138454 27.25323879 -49.7275318 17.47808128 -43.23828125 8.5859375 C-31.68557231 -3.9275444 -15.48338104 -5.87180139 0 0 Z " fill="#000000" transform="translate(267,423)"/>
<path d="M0 0 C8.14328815 5.53940114 12.48578342 12.44953777 15.58984375 21.76171875 C16.39840904 32.98833684 14.9072939 42.89043968 7.58984375 51.76171875 C-0.85907529 59.55471432 -8.95201522 63.17818681 -20.4375 63.0390625 C-29.68895624 62.17591744 -38.1960283 57.83782742 -44.12890625 50.69140625 C-50.06233853 42.34388143 -52.61267625 34.00387183 -51.41015625 23.76171875 C-49.27463764 13.2721588 -44.25938963 5.77691056 -35.34765625 -0.17578125 C-24.54425803 -6.77129132 -10.6968225 -6.15964678 0 0 Z " fill="#000000" transform="translate(393.41015625,143.23828125)"/>
<path d="M0 0 C0 0.66 0 1.32 0 2 C0.58910156 2.27585938 1.17820312 2.55171875 1.78515625 2.8359375 C8.86315139 6.555942 13.83292736 12.50331055 16.75 19.90234375 C19.63822428 29.71027204 18.51768552 39.41392836 13.74609375 48.34765625 C8.11753555 57.53432209 0.40761354 62.41996135 -10 65 C-19.04623564 66.23863842 -28.31737333 64.28798168 -35.75 58.9375 C-42.14393725 53.507819 -47.73399962 46.4400025 -49 38 C-49.91412684 26.14537096 -48.54597744 17.90624988 -40.875 8.6875 C-29.66629352 -3.0955369 -15.09709496 -4.09412745 0 0 Z " fill="#000000" transform="translate(266,141)"/>
<path d="M0 0 C6.62520205 6.54151528 9.84657434 14.96550685 10.16796875 24.14453125 C9.9238222 34.62847118 6.44067033 42.04592314 -0.7734375 49.51953125 C-8.08549753 56.30566585 -15.29751784 58.43295329 -25.19116211 58.3046875 C-34.41047031 57.90540476 -42.61196332 54.42067272 -49.14453125 47.83203125 C-55.87147448 38.65349094 -58.19085788 30.15851706 -57.14453125 18.83203125 C-55.04589487 9.65049709 -50.23129915 0.97815628 -42.14453125 -4.16796875 C-27.19427036 -11.17825915 -13.16246842 -10.37759486 0 0 Z " fill="#000000" transform="translate(274.14453125,508.16796875)"/>
<path d="M0 0 C2.78197952 1.72404365 4.82162105 3.71994805 6.94140625 6.203125 C8.20984375 7.316875 8.20984375 7.316875 9.50390625 8.453125 C15.96455915 15.74206673 17.33360435 24.3839754 17.20703125 33.82421875 C16.42273371 43.80094484 11.12334831 50.55186831 3.94140625 57.203125 C-4.84123162 63.93287915 -14.30080856 64.25489294 -25.05859375 63.203125 C-28.39245236 62.27996993 -31.11610828 60.9907991 -34.05859375 59.203125 C-35.03892578 58.77966797 -35.03892578 58.77966797 -36.0390625 58.34765625 C-42.85785128 54.48323631 -47.14715527 46.21949753 -49.4375 38.9921875 C-51.41952778 30.09176087 -50.42924734 20.9332361 -45.76953125 13.01171875 C-35.15048664 -1.95148047 -17.16980102 -8.25080117 0 0 Z " fill="#000000" transform="translate(392.05859375,502.796875)"/>
<path d="" fill="#000000" transform="translate(0,0)"/>
<path d="" fill="#000000" transform="translate(0,0)"/>
<path d="" fill="#000000" transform="translate(0,0)"/>
<path d="" fill="#000000" transform="translate(0,0)"/>
</svg>
