<?xml version="1.0" encoding="UTF-8"?>
<svg version="1.1" xmlns="http://www.w3.org/2000/svg" width="600" height="450">
<path d="M0 0 C20.54829127 19.41494034 34.04755187 44.50433216 35.0234375 73.15625 C35.29092414 93.63220518 32.91202281 111.75859101 24.6875 130.5625 C24.18605469 131.71878906 23.68460938 132.87507812 23.16796875 134.06640625 C16.87452926 147.526098 7.72551781 161.48969003 -3.3125 171.5625 C-3.9725 171.5625 -4.6325 171.5625 -5.3125 171.5625 C-5.3125 172.2225 -5.3125 172.8825 -5.3125 173.5625 C-22.32422207 189.44226338 -47.79803211 205.69545249 -71.8125 207.0625 C-78.00910225 206.17727111 -82.039754 202.08531083 -86.34844971 197.78051758 C-86.81769009 197.31439717 -87.28693048 196.84827677 -87.77039027 196.3680315 C-89.32727764 194.81906376 -90.87698611 193.26311579 -92.42675781 191.70703125 C-93.54712301 190.58937852 -94.6679127 189.47215119 -95.78909302 188.35531616 C-98.82238543 185.33111743 -101.84934635 182.30065558 -104.87491703 179.26873398 C-108.04469683 176.09388106 -111.21936431 172.92392157 -114.39324951 169.75317383 C-119.71954528 164.43051281 -125.04161857 159.10365708 -130.36132812 153.77441406 C-136.51175616 147.61309126 -142.66937108 141.45902155 -148.83074689 135.30864811 C-154.12371317 130.02475535 -159.41277505 124.73697812 -164.69858813 119.44592953 C-167.85435858 116.28704118 -171.01146451 113.12951944 -174.17209625 109.97549438 C-177.14135856 107.0120062 -180.10569163 104.04367427 -183.06628036 101.07152176 C-184.15378963 99.98136676 -185.24300674 98.89291241 -186.3340416 97.80628586 C-187.82219467 96.32359269 -189.30405851 94.8348848 -190.78448486 93.34448242 C-192.03104292 92.09679329 -192.03104292 92.09679329 -193.30278397 90.82389832 C-197.23858379 86.39520743 -197.68640146 83.03403867 -197.55761719 77.26513672 C-197.15480566 72.82377851 -195.90590235 68.81911921 -194.4375 64.625 C-194.12796387 63.72402588 -193.81842773 62.82305176 -193.49951172 61.89477539 C-186.6873601 42.85769022 -176.1300627 27.22760837 -162.3125 12.5625 C-161.76335937 11.96050781 -161.21421875 11.35851562 -160.6484375 10.73828125 C-120.18756393 -32.01471077 -44.59785194 -40.7586332 0 0 Z " fill="#353535" transform="translate(411.3125,81.4375)"/>
<path d="M0 0 C3.29423531 1.44092308 5.47480359 3.22364064 8.01165771 5.75769043 C8.7996727 6.54006577 9.58768768 7.3224411 10.39958191 8.12852478 C11.68243828 9.41745384 11.68243828 9.41745384 12.99121094 10.73242188 C13.89887711 11.6365834 14.80654327 12.54074493 15.74171448 13.4723053 C18.22749863 15.94897905 20.70692375 18.43192859 23.18498135 20.91633034 C25.77781909 23.51423196 28.37553328 26.10725002 30.97247314 28.7010498 C35.33046891 33.05540837 39.68423332 37.41396437 44.03564453 41.77490234 C49.07158259 46.82173813 54.11470377 51.86131 59.16159034 56.89719534 C63.49228061 61.21882202 67.81907666 65.54431854 72.14261651 69.87309885 C74.72602413 72.45962954 77.31077601 75.04477791 79.89904022 77.62644958 C82.78055458 80.50113614 85.65385891 83.38389233 88.52636719 86.26757812 C89.38970169 87.12686417 90.25303619 87.98615021 91.14253235 88.87147522 C91.91926804 89.65385056 92.69600372 90.43622589 93.49627686 91.24230957 C94.17689556 91.92368233 94.85751427 92.60505508 95.55875778 93.3070755 C97 95 97 95 97 97 C85.75590732 97.8177522 74.45693401 94.55377124 64.125 90.3125 C54.05408431 86.27162327 45.20925165 86.10870999 35 90 C24.73195402 95.41873625 17.39204722 106.34046065 10.40063477 115.3671875 C6.56287979 120.3182614 2.61406646 125.17019328 -1.375 130 C-1.95797852 130.70592285 -2.54095703 131.4118457 -3.14160156 132.13916016 C-4.2480548 133.47678878 -5.35684165 134.81249149 -6.46826172 136.14599609 C-7.45161551 137.33623975 -8.42315726 138.53639864 -9.37939453 139.74853516 C-13.64187599 145.09986465 -17.97619636 147.43907147 -24.74609375 148.3828125 C-32.62795971 148.71076809 -37.72007456 146.68357536 -43.75 141.75 C-48.94795914 135.39693883 -50.70232887 130.18875648 -50.37890625 121.89453125 C-48.78433601 109.7133297 -37.90654444 103.00716567 -28.890625 96.03125 C-24.12149195 92.33432286 -19.44229148 88.52885246 -14.77416992 84.70556641 C-11.79364403 82.26473471 -8.81056247 79.83730673 -5.75390625 77.4921875 C2.77460282 70.84990228 8.88533004 63.90133305 10.44140625 52.87109375 C10.76736629 43.62854936 8.82483715 36.49285801 5.71679688 27.86914062 C2.49038138 18.8732897 0 9.62441843 0 0 Z " fill="#353535" transform="translate(209,195)"/>
<path d="M0 0 C5.57921162 6.56459476 7.95547801 14.34687703 7.84375 22.8046875 C7.05568428 31.57473311 3.3463285 39.18814288 -3.4296875 44.84765625 C-11.06141091 49.62940795 -18.84170602 52.26982368 -27.890625 50.31640625 C-37.51304659 47.65795944 -44.28765725 42.58574771 -49.5390625 34.04296875 C-52.6718841 27.15667221 -52.58327339 18.45513321 -50.7734375 11.2265625 C-47.26177221 2.49280874 -41.30156947 -3.4394506 -32.76953125 -7.25 C-21.38494298 -11.64038379 -8.84632812 -8.04398673 0 0 Z " fill="#353535" transform="translate(205.4296875,64.15234375)"/>
</svg>
